<svg width="100%" height="100%" id="svg" viewBox="0 0 1440 490" xmlns="http://www.w3.org/2000/svg" class="transition duration-300 ease-in-out delay-150"><defs><linearGradient id="gradient" x1="100%" y1="50%" x2="0%" y2="50%"><stop offset="5%" stop-color="#6733c8"></stop><stop offset="95%" stop-color="#3360c8"></stop></linearGradient></defs><path d="M 0,500 C 0,500 0,166 0,166 C 107.56937799043064,168.64114832535887 215.13875598086128,171.2822966507177 299,165 C 382.8612440191387,158.7177033492823 443.0143540669857,143.51196172248802 541,140 C 638.9856459330143,136.48803827751198 774.8038277511963,144.66985645933016 893,159 C 1011.1961722488037,173.33014354066984 1111.7703349282297,193.80861244019138 1200,196 C 1288.2296650717703,198.19138755980862 1364.1148325358852,182.0956937799043 1440,166 C 1440,166 1440,500 1440,500 Z" stroke="none" stroke-width="0" fill="url(#gradient)" fill-opacity="0.53" class="transition-all duration-300 ease-in-out delay-150 path-0" transform="rotate(-180 720 250)"></path><defs><linearGradient id="gradient" x1="100%" y1="50%" x2="0%" y2="50%"><stop offset="5%" stop-color="#6733c8"></stop><stop offset="95%" stop-color="#3360c8"></stop></linearGradient></defs><path d="M 0,500 C 0,500 0,333 0,333 C 113.31100478468898,325.3062200956938 226.62200956937795,317.6124401913876 333,312 C 439.37799043062205,306.3875598086124 538.8229665071771,302.85645933014354 620,305 C 701.1770334928229,307.14354066985646 764.0861244019139,314.9617224880383 856,329 C 947.9138755980861,343.0382775119617 1068.8325358851673,363.2966507177034 1171,365 C 1273.1674641148327,366.7033492822966 1356.5837320574165,349.8516746411483 1440,333 C 1440,333 1440,500 1440,500 Z" stroke="none" stroke-width="0" fill="url(#gradient)" fill-opacity="1" class="transition-all duration-300 ease-in-out delay-150 path-1" transform="rotate(-180 720 250)"></path></svg>